<svg width="80" height="80" viewBox="0 0 80 80" fill="none" xmlns="http://www.w3.org/2000/svg" xmlns:xlink="http://www.w3.org/1999/xlink">
<path d="M34.403,10.485C34.176,10.258 33.907,10.077 33.61,9.954C33.313,9.831 32.995,9.768 32.674,9.768C32.353,9.768 32.035,9.831 31.738,9.954C31.441,10.077 31.172,10.258 30.945,10.485L1.641,39.789C1.415,40.016 1.235,40.286 1.113,40.583C0.99,40.879 0.928,41.197 0.928,41.518L0.928,75.706C0.928,76.353 1.186,76.975 1.643,77.432C2.101,77.89 2.723,78.148 3.37,78.148L25.348,78.148C25.996,78.148 26.617,77.89 27.075,77.432C27.533,76.975 27.79,76.353 27.79,75.706L27.79,56.17L37.558,56.17L37.558,75.706C37.558,76.353 37.815,76.975 38.273,77.432C38.731,77.89 39.352,78.148 40,78.148L61.978,78.148C62.625,78.148 63.247,77.89 63.705,77.432C64.163,76.975 64.42,76.353 64.42,75.706L64.42,41.518C64.42,41.197 64.358,40.879 64.235,40.583C64.113,40.286 63.933,40.016 63.707,39.789L57.094,33.181L57.094,17.098C57.094,16.45 56.837,15.829 56.379,15.371C55.921,14.913 55.3,14.656 54.652,14.656L49.768,14.656C49.12,14.656 48.499,14.913 48.041,15.371C47.583,15.829 47.326,16.45 47.326,17.098L47.326,23.413L34.403,10.485ZM5.812,73.264L5.812,42.529L32.674,15.667L59.536,42.529L59.536,73.264L42.442,73.264L42.442,53.728C42.442,53.08 42.185,52.459 41.727,52.001C41.269,51.543 40.648,51.286 40,51.286L25.348,51.286C24.7,51.286 24.079,51.543 23.621,52.001C23.163,52.459 22.906,53.08 22.906,53.728L22.906,73.264L5.812,73.264Z" fill="#E6E6E6" fill-opacity="0.6"/>
<path d="M49.055,10.485C48.828,10.258 48.558,10.077 48.262,9.954C47.965,9.831 47.647,9.768 47.326,9.768C47.005,9.768 46.687,9.831 46.39,9.954C46.093,10.077 45.824,10.258 45.597,10.485L16.293,39.789C16.067,40.016 15.887,40.286 15.765,40.583C15.642,40.879 15.58,41.197 15.58,41.518L15.58,75.706C15.58,76.353 15.837,76.975 16.295,77.432C16.753,77.89 17.374,78.148 18.022,78.148L40,78.148C40.647,78.148 41.269,77.89 41.727,77.432C42.185,76.975 42.442,76.353 42.442,75.706L42.442,56.17L52.21,56.17L52.21,75.706C52.21,76.353 52.467,76.975 52.925,77.432C53.383,77.89 54.004,78.148 54.652,78.148L76.63,78.148C77.277,78.148 77.898,77.89 78.356,77.432C78.814,76.975 79.072,76.353 79.072,75.706L79.072,41.518C79.072,41.197 79.009,40.879 78.887,40.583C78.765,40.286 78.585,40.016 78.359,39.789L71.746,33.181L71.746,17.098C71.746,16.45 71.488,15.829 71.03,15.371C70.572,14.913 69.951,14.656 69.304,14.656L64.42,14.656C63.772,14.656 63.151,14.913 62.693,15.371C62.235,15.829 61.978,16.45 61.978,17.098L61.978,23.413L49.055,10.485ZM20.464,73.264L20.464,42.529L47.326,15.667L74.188,42.529L74.188,73.264L57.094,73.264L57.094,53.728C57.094,53.08 56.836,52.459 56.378,52.001C55.921,51.543 55.299,51.286 54.652,51.286L40,51.286C39.352,51.286 38.731,51.543 38.273,52.001C37.815,52.459 37.558,53.08 37.558,53.728L37.558,73.264L20.464,73.264Z" fill="#FF9505"/>
</svg>
