<svg width="1440" height="726" viewBox="0 0 1440 726" fill="none" xmlns="http://www.w3.org/2000/svg">
<path fill-rule="evenodd" clip-rule="evenodd" d="M1440 0H0.00146484V341.479L120.93 220.55C122.776 218.699 124.969 217.231 127.384 216.229C129.799 215.227 132.387 214.711 135.001 214.711C137.616 214.711 140.204 215.227 142.619 216.229C145.034 217.231 147.227 218.699 149.073 220.55L254.251 325.768V274.372C254.251 269.1 256.345 264.045 260.073 260.318C263.8 256.591 268.855 254.497 274.126 254.497H313.876C319.148 254.497 324.203 256.591 327.93 260.318C331.658 264.045 333.751 269.1 333.751 274.372V405.268L387.573 459.05C389.417 460.899 390.879 463.094 391.875 465.508C392.871 467.923 393.381 470.51 393.376 473.122V726H1440V0ZM353.626 726H214.501V572.497C214.501 567.225 212.408 562.17 208.68 558.443C204.953 554.716 199.898 552.622 194.626 552.622H75.3765C70.1053 552.622 65.05 554.716 61.3228 558.443C57.5955 562.17 55.5015 567.225 55.5015 572.497V726H0.00146484V397.725L135.001 262.725L353.626 481.35V726ZM95.2515 726V592.372H174.751V726H95.2515Z" fill="#2C2B2B"/>
</svg>
